<svg version="1.1" xmlns="http://www.w3.org/2000/svg" viewBox="0 0 283 481" width="283" height="481"><!-- svg-source:excalidraw --><metadata></metadata><defs><style class="style-fonts">
      </style></defs><g transform="translate(10 444) rotate(0 131.5 -203.5)" stroke="none"><path fill="#ffffff" d="M -5.63,-2.69 Q -5.63,-2.69 0.81,-15.86 7.25,-29.02 12.39,-38.45 17.52,-47.88 26.61,-64.49 35.71,-81.10 43.63,-95.08 51.56,-109.06 67.62,-135.74 83.68,-162.43 97.90,-189.69 112.11,-216.95 125.04,-244.59 137.97,-272.24 148.61,-298.84 159.25,-325.44 167.20,-349.30 175.14,-373.17 179.35,-390.35 183.56,-407.54 185.29,-415.48 187.02,-423.42 187.32,-426.63 187.63,-429.83 187.89,-430.55 188.15,-431.28 188.57,-431.92 189.00,-432.56 189.57,-433.08 190.13,-433.60 190.81,-433.97 191.48,-434.35 192.23,-434.54 192.97,-434.74 193.74,-434.75 194.51,-434.77 195.26,-434.60 196.01,-434.43 196.70,-434.08 197.39,-433.74 197.98,-433.24 198.56,-432.74 199.01,-432.11 199.46,-431.49 199.75,-430.77 200.03,-430.06 200.14,-429.29 200.25,-428.53 200.17,-427.76 200.09,-427.00 193.11,-418.08 186.14,-409.17 174.63,-387.20 163.12,-365.24 151.29,-340.94 139.46,-316.64 129.89,-292.12 120.32,-267.60 114.00,-243.02 107.68,-218.45 105.00,-201.25 102.31,-184.04 103.17,-174.08 104.04,-164.11 106.04,-159.32 108.04,-154.54 113.69,-154.23 119.35,-153.92 127.49,-158.06 135.63,-162.19 149.14,-171.78 162.65,-181.36 175.80,-193.86 188.94,-206.35 198.66,-216.27 208.38,-226.19 212.86,-231.44 217.34,-236.68 220.08,-239.48 222.82,-242.28 223.54,-242.82 224.26,-243.36 225.09,-243.71 225.92,-244.07 226.81,-244.21 227.70,-244.35 228.59,-244.28 229.49,-244.20 230.34,-243.92 231.19,-243.63 231.95,-243.15 232.71,-242.67 233.33,-242.02 233.96,-241.37 234.41,-240.59 234.85,-239.81 235.10,-238.94 235.35,-238.08 235.39,-237.18 235.42,-236.28 235.24,-235.40 235.06,-234.52 234.67,-233.71 234.28,-232.90 233.71,-232.20 233.14,-231.51 231.96,-225.33 230.77,-219.16 225.77,-205.34 220.78,-191.52 214.54,-171.36 208.30,-151.20 202.72,-128.40 197.15,-105.59 193.60,-81.74 190.05,-57.88 190.52,-40.94 190.98,-24.01 193.61,-13.51 196.23,-3.02 200.91,3.07 205.59,9.17 211.92,12.59 218.25,16.02 224.64,17.28 231.03,18.54 237.94,19.07 244.84,19.59 250.13,19.52 255.42,19.46 257.74,19.27 260.05,19.08 261.27,19.35 262.49,19.63 263.56,20.28 264.63,20.93 265.44,21.88 266.24,22.84 266.70,24.00 267.16,25.17 267.22,26.42 267.28,27.67 266.94,28.87 266.60,30.07 265.89,31.11 265.19,32.14 264.19,32.89 263.19,33.64 262.00,34.04 260.81,34.43 259.56,34.43 258.31,34.42 257.13,34.01 255.94,33.61 254.95,32.85 253.96,32.09 253.26,31.05 252.57,30.01 252.24,28.80 251.91,27.59 251.98,26.35 252.06,25.10 252.52,23.94 252.99,22.78 253.81,21.83 254.62,20.88 255.70,20.24 256.77,19.60 257.99,19.34 259.22,19.07 260.46,19.21 261.70,19.35 262.84,19.89 263.97,20.42 264.87,21.28 265.78,22.15 266.36,23.25 266.94,24.36 267.13,25.60 267.33,26.83 267.12,28.07 266.91,29.30 266.32,30.40 265.73,31.50 264.82,32.36 263.91,33.22 262.77,33.74 261.63,34.26 260.39,34.38 259.14,34.51 259.14,34.51 259.14,34.51 256.87,34.05 254.59,33.59 249.07,32.89 243.55,32.19 235.84,31.21 228.13,30.24 220.43,27.99 212.73,25.73 204.85,20.87 196.96,16.01 191.19,8.02 185.43,0.04 182.42,-11.77 179.41,-23.59 178.79,-41.57 178.17,-59.55 181.55,-84.01 184.92,-108.48 190.22,-131.73 195.52,-154.98 201.33,-175.53 207.15,-196.08 211.58,-210.42 216.01,-224.75 219.42,-233.52 222.82,-242.28 223.54,-242.82 224.26,-243.36 225.09,-243.71 225.92,-244.07 226.81,-244.21 227.69,-244.35 228.59,-244.28 229.49,-244.20 230.34,-243.92 231.19,-243.63 231.95,-243.15 232.71,-242.67 233.33,-242.02 233.96,-241.37 234.40,-240.59 234.85,-239.81 235.10,-238.95 235.35,-238.08 235.39,-237.18 235.42,-236.28 235.24,-235.40 235.06,-234.52 234.67,-233.71 234.28,-232.90 233.71,-232.20 233.14,-231.51 229.95,-229.79 226.75,-228.08 221.83,-223.03 216.91,-217.98 207.21,-207.73 197.51,-197.48 183.92,-184.16 170.32,-170.84 156.08,-160.27 141.85,-149.70 130.70,-144.30 119.55,-138.90 111.83,-140.14 104.10,-141.39 100.36,-145.77 96.62,-150.16 95.02,-156.68 93.42,-163.19 92.56,-174.41 91.71,-185.62 94.45,-203.38 97.20,-221.13 103.66,-246.34 110.12,-271.55 119.80,-296.51 129.47,-321.48 141.28,-345.97 153.08,-370.46 164.72,-392.95 176.36,-415.44 181.99,-422.63 187.63,-429.83 187.89,-430.55 188.15,-431.28 188.57,-431.92 189.00,-432.56 189.57,-433.08 190.13,-433.60 190.81,-433.97 191.48,-434.34 192.23,-434.54 192.97,-434.74 193.74,-434.75 194.51,-434.77 195.26,-434.60 196.01,-434.43 196.70,-434.08 197.39,-433.74 197.98,-433.24 198.56,-432.74 199.01,-432.11 199.46,-431.49 199.75,-430.77 200.03,-430.06 200.14,-429.29 200.25,-428.53 200.17,-427.77 200.09,-427.00 198.86,-424.01 197.62,-421.01 195.73,-413.02 193.84,-405.02 189.53,-387.42 185.22,-369.82 177.18,-345.65 169.15,-321.48 158.42,-294.59 147.68,-267.70 134.69,-239.83 121.69,-211.97 107.36,-184.39 93.03,-156.81 77.12,-130.23 61.20,-103.64 53.41,-89.68 45.61,-75.73 36.67,-59.09 27.72,-42.44 22.88,-33.15 18.04,-23.87 11.83,-10.58 5.63,2.69 5.23,3.33 4.82,3.96 4.28,4.48 3.73,5.00 3.08,5.38 2.43,5.75 1.70,5.96 0.98,6.17 0.23,6.19 -0.52,6.22 -1.25,6.07 -1.99,5.92 -2.67,5.59 -3.35,5.27 -3.93,4.79 -4.52,4.31 -4.97,3.71 -5.42,3.10 -5.71,2.41 -6.00,1.71 -6.12,0.97 -6.24,0.23 -6.18,-0.51 -6.11,-1.26 -5.87,-1.98 -5.63,-2.69 -5.63,-2.69 L -5.63,-2.69 Z"></path></g></svg>