<?xml version="1.0" standalone="no"?>
<!DOCTYPE svg PUBLIC "-//W3C//DTD SVG 20010904//EN"
 "http://www.w3.org/TR/2001/REC-SVG-20010904/DTD/svg10.dtd">
<svg version="1.0" xmlns="http://www.w3.org/2000/svg"
 width="1024.000000pt" height="26.000000pt" viewBox="0 0 1024.000000 26.000000"
 preserveAspectRatio="xMidYMid meet">

<g transform="translate(0.000000,26.000000) scale(0.100000,-0.100000)"
fill="#000000" stroke="none">
<path d="M5049 120 c-26 -25 -30 -36 -27 -72 2 -31 8 -44 21 -46 15 -3 16 0 6
22 -27 58 39 122 100 97 40 -17 69 -81 36 -81 -8 0 -15 8 -15 18 0 25 -20 42
-50 42 -14 0 -31 -5 -38 -12 -15 -15 -15 -61 0 -76 14 -14 64 -16 73 -2 3 5
12 7 20 3 23 -8 45 16 45 49 0 46 -48 88 -100 88 -33 0 -48 -6 -71 -30z m91
-56 c11 -12 10 -18 -3 -32 -16 -15 -18 -15 -34 0 -13 14 -14 20 -3 32 16 20
24 20 40 0z"/>
</g>
</svg>
